<svg width="720" height="392" viewBox="0 0 720 392" fill="none" xmlns="http://www.w3.org/2000/svg" aria-hidden="true">
    <title>International Fight Zone</title>
    <path
        d="M86.6914 5H20.1499C11.8656 5 5.1499 11.7157 5.1499 20V372C5.1499 380.284 11.8656 387 20.1499 387H86.6914C94.9757 387 101.691 380.284 101.691 372V20C101.691 11.7157 94.9757 5 86.6914 5Z"
        fill="#FF0000" stroke="black" stroke-width="9" />
    <path
        d="M356.723 5H141.691C133.407 5 126.691 11.7157 126.691 20V217.085C126.691 225.37 133.407 232.085 141.691 232.085H356.723C365.007 232.085 371.723 225.37 371.723 217.085V169.398C371.723 161.114 365.007 154.398 356.723 154.398H226.28C217.996 154.398 211.28 147.683 211.28 139.398V90.7918C211.28 82.5075 217.996 75.7918 226.28 75.7918H356.723C365.007 75.7918 371.723 69.0761 371.723 60.7918V20C371.723 11.7157 365.007 5 356.723 5Z"
        fill="#FF0000" />
    <path
        d="M196.28 278.974H141.691C133.407 278.974 126.691 285.689 126.691 293.974V372C126.691 380.284 133.407 387 141.691 387H196.28C204.564 387 211.28 380.284 211.28 372V293.974C211.28 285.689 204.564 278.974 196.28 278.974Z"
        fill="#FF0000" />
    <path
        d="M356.723 5H141.691C133.407 5 126.691 11.7157 126.691 20V217.085C126.691 225.37 133.407 232.085 141.691 232.085H356.723C365.007 232.085 371.723 225.37 371.723 217.085V169.398C371.723 161.114 365.007 154.398 356.723 154.398H226.28C217.996 154.398 211.28 147.683 211.28 139.398V90.7918C211.28 82.5075 217.996 75.7918 226.28 75.7918H356.723C365.007 75.7918 371.723 69.0761 371.723 60.7918V20C371.723 11.7157 365.007 5 356.723 5Z"
        stroke="black" stroke-width="9" />
    <path
        d="M196.28 278.974H141.691C133.407 278.974 126.691 285.689 126.691 293.974V372C126.691 380.284 133.407 387 141.691 387H196.28C204.564 387 211.28 380.284 211.28 372V293.974C211.28 285.689 204.564 278.974 196.28 278.974Z"
        stroke="black" stroke-width="9" />
    <path
        d="M699.85 5H411.723C403.439 5 396.723 11.7157 396.723 20V60.7918C396.723 69.0761 403.439 75.7918 411.723 75.7918H559.321C572.311 75.7918 579.16 91.1807 570.465 100.832L400.579 289.404C398.096 292.159 396.723 295.736 396.723 299.444V372C396.723 380.284 403.439 387 411.723 387H699.85C708.134 387 714.85 380.284 714.85 372V324.313C714.85 316.029 708.134 309.313 699.85 309.313H535.381C522.094 309.313 515.367 293.313 524.663 283.819L710.568 93.9559C713.313 91.1525 714.85 87.3851 714.85 83.4616V20C714.85 11.7157 708.134 5 699.85 5Z"
        fill="#FF0000" stroke="black" stroke-width="9" />
</svg>